<svg width="44" height="50" viewBox="0 0 44 50" fill="none" xmlns="http://www.w3.org/2000/svg">
<path d="M42.1037 37.6518H33.0242V29.6518C33.0242 26.8904 30.7657 24.6518 27.98 24.6518H21.9269V19.1618L35.6269 9.46178C35.8489 9.30603 35.9981 9.06803 36.0406 8.80178C36.0808 8.53641 36.0117 8.26616 35.8489 8.05178L32.8224 4.05178C32.4963 3.62203 31.8857 3.52478 31.4403 3.83178L21.0997 10.9218C22.9282 7.50703 21.6177 3.26941 18.1728 1.45703C14.7279 -0.355467 10.4528 0.943533 8.6244 4.35828C7.15414 7.10391 7.68668 10.4817 9.93185 12.6518H8.81204C8.52742 12.6524 8.25617 12.7723 8.0655 12.9818L1.54841 20.1618C-0.240893 22.1434 -0.152241 25.1665 1.75018 27.0418L7.08693 32.3618C7.29664 32.5699 7.58819 32.676 7.88391 32.6518C8.18341 32.6289 8.45706 32.475 8.63045 32.2318L9.82088 30.5618V48.6518C9.82088 49.204 10.2726 49.6518 10.8297 49.6518H16.8827C17.4399 49.6518 17.8916 49.204 17.8916 48.6518V32.6518H24.9534V37.6518H21.9269C21.3698 37.6518 20.9181 38.0995 20.9181 38.6518V48.6518C20.9181 49.204 21.3698 49.6518 21.9269 49.6518H42.1037C42.6608 49.6518 43.1125 49.204 43.1125 48.6518V38.6518C43.1125 38.0995 42.6609 37.6518 42.1037 37.6518ZM9.82088 7.65178C9.82088 4.89041 12.0793 2.65178 14.8651 2.65178C17.6508 2.65178 19.9093 4.89041 19.9093 7.65178C19.9093 10.4132 17.6508 12.6518 14.8651 12.6518C12.0793 12.6518 9.82088 10.4132 9.82088 7.65178ZM17.2661 14.6518L15.8739 17.4118L14.4817 14.6518H17.2661ZM9.82088 25.3618L8.20674 23.6518L9.82088 22.0518V25.3618ZM16.8827 30.6518C16.3256 30.6518 15.8739 31.0995 15.8739 31.6518V47.6518H11.8386V19.6518C11.8365 19.248 11.5898 18.8852 11.2131 18.7318C10.8374 18.5752 10.4036 18.658 10.1134 18.9418L6.07809 22.9418C5.6936 23.3307 5.6936 23.9529 6.07809 24.3418L9.37699 27.7518L7.67205 30.1118L3.15246 25.6518C1.99999 24.5213 1.95106 22.6913 3.04149 21.5018L9.26602 14.6518H12.2219L14.976 20.1018C15.2301 20.5933 15.838 20.7877 16.3339 20.5358C16.5222 20.4402 16.6754 20.2884 16.7718 20.1018L19.6873 14.3318L31.7934 6.02178L33.6194 8.43178L20.333 17.8418C20.0684 18.0284 19.9108 18.3299 19.9093 18.6518V25.6518C19.9093 26.204 20.361 26.6518 20.9181 26.6518H27.98C29.6515 26.6518 31.0065 27.9949 31.0065 29.6518V37.6518H26.9711V31.6518C26.9711 31.0995 26.5194 30.6518 25.9623 30.6518H16.8827ZM41.0949 47.6518H22.9358V39.6518H41.0949V47.6518Z" fill="#EB5757"/>
</svg>
